<svg xmlns="http://www.w3.org/2000/svg" xmlns:xlink="http://www.w3.org/1999/xlink" width="500" zoomAndPan="magnify" viewBox="0 0 375 374.999991" height="500" preserveAspectRatio="xMidYMid meet" version="1.0"><defs><g/><clipPath id="431fbac7d3"><path d="M 78 183 L 129.941406 183 L 129.941406 192 L 78 192 Z M 78 183 " clip-rule="nonzero"/></clipPath><clipPath id="7890919eda"><path d="M 88 163 L 129.941406 163 L 129.941406 172 L 88 172 Z M 88 163 " clip-rule="nonzero"/></clipPath><clipPath id="c8d91036b3"><path d="M 109 173 L 129.941406 173 L 129.941406 182 L 109 182 Z M 109 173 " clip-rule="nonzero"/></clipPath><clipPath id="71f3c0a033"><path d="M 65.441406 183 L 75 183 L 75 192 L 65.441406 192 Z M 65.441406 183 " clip-rule="nonzero"/></clipPath><clipPath id="eaa2f5db34"><path d="M 90 193 L 129.941406 193 L 129.941406 202 L 90 202 Z M 90 193 " clip-rule="nonzero"/></clipPath><clipPath id="551bb39891"><path d="M 94 202 L 129.941406 202 L 129.941406 211 L 94 211 Z M 94 202 " clip-rule="nonzero"/></clipPath></defs><g clip-path="url(#431fbac7d3)"><path fill="#8c52ff" d="M 152.207031 183.402344 L 110.691406 183.402344 L 108.917969 186.46875 L 104.816406 186.46875 L 103.042969 183.402344 C 101.511719 183.402344 82.359375 183.402344 80.832031 183.402344 L 78.539062 187.375 L 80.832031 191.347656 C 82.359375 191.347656 101.511719 191.347656 103.042969 191.347656 L 104.816406 188.28125 L 108.917969 188.28125 L 110.691406 191.347656 L 152.207031 191.347656 C 152.664062 188.722656 152.664062 186.035156 152.207031 183.402344 Z M 152.207031 183.402344 " fill-opacity="1" fill-rule="nonzero"/></g><g clip-path="url(#7890919eda)"><path fill="#8c52ff" d="M 95.210938 171.820312 L 96.984375 168.757812 L 101.085938 168.757812 L 102.859375 171.820312 L 146.628906 171.820312 C 138.402344 162.546875 129.175781 163.871094 118.050781 163.871094 L 102.859375 163.871094 L 101.085938 166.9375 L 96.984375 166.9375 L 95.210938 163.871094 L 90.625 163.871094 L 88.332031 167.84375 L 90.625 171.8125 L 95.210938 171.8125 Z M 95.210938 171.820312 " fill-opacity="1" fill-rule="nonzero"/></g><g clip-path="url(#c8d91036b3)"><path fill="#8c52ff" d="M 122.628906 176.707031 L 118.523438 176.707031 L 116.75 173.640625 L 112.164062 173.640625 L 109.871094 177.613281 L 112.164062 181.585938 L 116.75 181.585938 L 118.523438 178.519531 L 122.628906 178.519531 L 124.402344 181.585938 L 151.820312 181.585938 C 151.082031 178.683594 149.796875 175.996094 148.085938 173.632812 L 124.402344 173.632812 Z M 122.628906 176.707031 " fill-opacity="1" fill-rule="nonzero"/></g><g clip-path="url(#71f3c0a033)"><path fill="#8c52ff" d="M 67.734375 183.402344 L 65.441406 187.375 L 67.734375 191.355469 L 72.328125 191.355469 L 74.621094 187.375 L 72.328125 183.402344 Z M 67.734375 183.402344 " fill-opacity="1" fill-rule="nonzero"/></g><path fill="#8c52ff" d="M 96.777344 177.613281 L 99.070312 181.585938 L 103.664062 181.585938 L 105.957031 177.613281 L 103.664062 173.640625 L 99.070312 173.640625 Z M 96.777344 177.613281 " fill-opacity="1" fill-rule="nonzero"/><path fill="#8c52ff" d="M 83.40625 202.929688 L 81.105469 206.90625 L 83.40625 210.878906 L 87.992188 210.878906 L 90.285156 206.90625 L 87.992188 202.929688 Z M 83.40625 202.929688 " fill-opacity="1" fill-rule="nonzero"/><g clip-path="url(#eaa2f5db34)"><path fill="#8c52ff" d="M 103.042969 196.230469 L 98.9375 196.230469 L 97.164062 193.167969 L 92.578125 193.167969 L 90.285156 197.136719 L 92.578125 201.109375 L 97.164062 201.109375 L 98.9375 198.042969 L 103.042969 198.042969 L 104.816406 201.109375 L 148.078125 201.109375 C 149.789062 198.746094 151.074219 196.058594 151.8125 193.160156 C 137.449219 193.160156 119.171875 193.160156 104.808594 193.160156 Z M 103.042969 196.230469 " fill-opacity="1" fill-rule="nonzero"/></g><g clip-path="url(#551bb39891)"><path fill="#8c52ff" d="M 114.796875 206 L 110.691406 206 L 108.917969 202.9375 C 104.78125 202.9375 100.636719 202.9375 96.496094 202.9375 L 94.203125 206.90625 L 96.496094 210.878906 C 100.636719 210.878906 104.773438 210.878906 108.917969 210.878906 L 110.691406 207.8125 L 114.796875 207.8125 L 116.570312 210.878906 C 128.316406 210.878906 138.191406 212.445312 146.628906 202.929688 L 116.570312 202.929688 Z M 114.796875 206 " fill-opacity="1" fill-rule="nonzero"/></g><g fill="#000000" fill-opacity="1"><g transform="translate(134.008642, 189.59179)"><g><path d="M 11.21875 0 L 6.171875 0 L 6.171875 -15.703125 L 0.28125 -15.703125 L 0.28125 -19.625 L 17.109375 -19.625 L 17.109375 -15.703125 L 11.21875 -15.703125 Z M 11.21875 0 "/></g></g></g><g fill="#000000" fill-opacity="1"><g transform="translate(157.010393, 189.59179)"><g><path d="M 1.6875 -19.625 L 13.46875 -19.625 C 15.425781 -19.625 16.847656 -19.179688 17.734375 -18.296875 C 18.628906 -17.410156 19.078125 -15.984375 19.078125 -14.015625 L 19.078125 -11.5 C 19.078125 -9.945312 18.816406 -8.738281 18.296875 -7.875 C 17.785156 -7.019531 16.96875 -6.453125 15.84375 -6.171875 L 19.359375 0 L 13.890625 0 L 10.65625 -5.890625 L 6.734375 -5.890625 L 6.734375 0 L 1.6875 0 Z M 14.015625 -14.015625 C 14.015625 -15.140625 13.457031 -15.703125 12.34375 -15.703125 L 6.734375 -15.703125 L 6.734375 -9.8125 L 12.34375 -9.8125 C 13.457031 -9.8125 14.015625 -10.375 14.015625 -11.5 Z M 14.015625 -14.015625 "/></g></g></g><g fill="#000000" fill-opacity="1"><g transform="translate(182.817147, 189.59179)"><g><path d="M 14.296875 -19.625 L 19.359375 -19.625 L 19.359375 -5.328125 C 19.359375 -3.367188 18.910156 -1.941406 18.015625 -1.046875 C 17.128906 -0.160156 15.707031 0.28125 13.75 0.28125 L 7.296875 0.28125 C 5.328125 0.28125 3.898438 -0.160156 3.015625 -1.046875 C 2.128906 -1.941406 1.6875 -3.367188 1.6875 -5.328125 L 1.6875 -19.625 L 6.734375 -19.625 L 6.734375 -5.328125 C 6.734375 -4.203125 7.289062 -3.640625 8.40625 -3.640625 L 12.625 -3.640625 C 13.738281 -3.640625 14.296875 -4.203125 14.296875 -5.328125 Z M 14.296875 -19.625 "/></g></g></g><g fill="#000000" fill-opacity="1"><g transform="translate(209.465407, 189.59179)"><g><path d="M 1.09375 -4.0625 C 6.21875 -3.78125 9.6875 -3.640625 11.5 -3.640625 C 11.925781 -3.640625 12.265625 -3.765625 12.515625 -4.015625 C 12.773438 -4.273438 12.90625 -4.617188 12.90625 -5.046875 L 12.90625 -7.578125 L 6.453125 -7.578125 C 4.484375 -7.578125 3.054688 -8.019531 2.171875 -8.90625 C 1.285156 -9.789062 0.84375 -11.21875 0.84375 -13.1875 L 0.84375 -14.015625 C 0.84375 -15.984375 1.285156 -17.410156 2.171875 -18.296875 C 3.054688 -19.179688 4.484375 -19.625 6.453125 -19.625 L 16.296875 -19.625 L 16.296875 -15.703125 L 7.578125 -15.703125 C 6.453125 -15.703125 5.890625 -15.140625 5.890625 -14.015625 L 5.890625 -13.46875 C 5.890625 -12.34375 6.453125 -11.78125 7.578125 -11.78125 L 12.625 -11.78125 C 14.457031 -11.78125 15.800781 -11.347656 16.65625 -10.484375 C 17.519531 -9.628906 17.953125 -8.285156 17.953125 -6.453125 L 17.953125 -5.046875 C 17.953125 -3.210938 17.519531 -1.863281 16.65625 -1 C 15.800781 -0.144531 14.457031 0.28125 12.625 0.28125 C 11.664062 0.28125 10.65625 0.257812 9.59375 0.21875 L 7.015625 0.109375 C 5.109375 0.015625 3.132812 -0.113281 1.09375 -0.28125 Z M 1.09375 -4.0625 "/></g></g></g><g fill="#000000" fill-opacity="1"><g transform="translate(233.869662, 189.59179)"><g><path d="M 11.21875 0 L 6.171875 0 L 6.171875 -15.703125 L 0.28125 -15.703125 L 0.28125 -19.625 L 17.109375 -19.625 L 17.109375 -15.703125 L 11.21875 -15.703125 Z M 11.21875 0 "/></g></g></g><g fill="#000000" fill-opacity="1"><g transform="translate(256.871412, 189.59179)"><g><path d="M 17.25 0 L 1.6875 0 L 1.6875 -19.625 L 17.25 -19.625 L 17.25 -15.703125 L 6.734375 -15.703125 L 6.734375 -11.921875 L 15 -11.921875 L 15 -8 L 6.734375 -8 L 6.734375 -3.921875 L 17.25 -3.921875 Z M 17.25 0 "/></g></g></g><g fill="#000000" fill-opacity="1"><g transform="translate(280.293921, 189.59179)"><g><path d="M 12.625 -19.625 C 14.738281 -19.625 16.34375 -19.078125 17.4375 -17.984375 C 18.53125 -16.890625 19.078125 -15.289062 19.078125 -13.1875 L 19.078125 -6.453125 C 19.078125 -4.335938 18.53125 -2.734375 17.4375 -1.640625 C 16.34375 -0.546875 14.738281 0 12.625 0 L 1.6875 0 L 1.6875 -19.625 Z M 14.015625 -13.1875 C 14.015625 -14.863281 13.175781 -15.703125 11.5 -15.703125 L 6.734375 -15.703125 L 6.734375 -3.921875 L 11.5 -3.921875 C 13.175781 -3.921875 14.015625 -4.765625 14.015625 -6.453125 Z M 14.015625 -13.1875 "/></g></g></g><g fill="#000000" fill-opacity="1"><g transform="translate(135.099214, 207.160404)"><g><path d="M 3.046875 0 L 0.765625 0 L 0.765625 -8.90625 L 7.828125 -8.90625 L 7.828125 -7.125 L 3.046875 -7.125 L 3.046875 -5.03125 L 6.796875 -5.03125 L 6.796875 -3.25 L 3.046875 -3.25 Z M 3.046875 0 "/></g></g></g><g fill="#000000" fill-opacity="1"><g transform="translate(150.021956, 207.160404)"><g><path d="M 6.484375 -6.484375 C 6.484375 -6.992188 6.226562 -7.25 5.71875 -7.25 L 3.5625 -7.25 C 3.050781 -7.25 2.796875 -6.992188 2.796875 -6.484375 L 2.796875 -2.421875 C 2.796875 -1.910156 3.050781 -1.65625 3.5625 -1.65625 L 5.71875 -1.65625 C 6.226562 -1.65625 6.484375 -1.910156 6.484375 -2.421875 Z M 8.78125 -2.421875 C 8.78125 -1.523438 8.578125 -0.875 8.171875 -0.46875 C 7.765625 -0.0703125 7.117188 0.125 6.234375 0.125 L 3.046875 0.125 C 2.160156 0.125 1.515625 -0.0703125 1.109375 -0.46875 C 0.710938 -0.875 0.515625 -1.523438 0.515625 -2.421875 L 0.515625 -6.484375 C 0.515625 -7.378906 0.710938 -8.023438 1.109375 -8.421875 C 1.515625 -8.828125 2.160156 -9.03125 3.046875 -9.03125 L 6.234375 -9.03125 C 7.117188 -9.03125 7.765625 -8.828125 8.171875 -8.421875 C 8.578125 -8.023438 8.78125 -7.378906 8.78125 -6.484375 Z M 8.78125 -2.421875 "/></g></g></g><g fill="#000000" fill-opacity="1"><g transform="translate(166.280285, 207.160404)"><g><path d="M 6.484375 -8.90625 L 8.78125 -8.90625 L 8.78125 -2.421875 C 8.78125 -1.523438 8.578125 -0.875 8.171875 -0.46875 C 7.765625 -0.0703125 7.117188 0.125 6.234375 0.125 L 3.3125 0.125 C 2.414062 0.125 1.765625 -0.0703125 1.359375 -0.46875 C 0.960938 -0.875 0.765625 -1.523438 0.765625 -2.421875 L 0.765625 -8.90625 L 3.046875 -8.90625 L 3.046875 -2.421875 C 3.046875 -1.910156 3.300781 -1.65625 3.8125 -1.65625 L 5.71875 -1.65625 C 6.226562 -1.65625 6.484375 -1.910156 6.484375 -2.421875 Z M 6.484375 -8.90625 "/></g></g></g><g fill="#000000" fill-opacity="1"><g transform="translate(182.793018, 207.160404)"><g><path d="M 8.515625 0 L 6.109375 0 L 3.046875 -5.34375 L 3.046875 0 L 0.765625 0 L 0.765625 -8.90625 L 3.171875 -8.90625 L 6.234375 -3.5625 L 6.234375 -8.90625 L 8.515625 -8.90625 Z M 8.515625 0 "/></g></g></g><g fill="#000000" fill-opacity="1"><g transform="translate(199.051347, 207.160404)"><g><path d="M 5.71875 -8.90625 C 6.675781 -8.90625 7.40625 -8.65625 7.90625 -8.15625 C 8.40625 -7.664062 8.65625 -6.941406 8.65625 -5.984375 L 8.65625 -2.921875 C 8.65625 -1.960938 8.40625 -1.234375 7.90625 -0.734375 C 7.40625 -0.242188 6.675781 0 5.71875 0 L 0.765625 0 L 0.765625 -8.90625 Z M 6.359375 -5.984375 C 6.359375 -6.742188 5.976562 -7.125 5.21875 -7.125 L 3.046875 -7.125 L 3.046875 -1.78125 L 5.21875 -1.78125 C 5.976562 -1.78125 6.359375 -2.160156 6.359375 -2.921875 Z M 6.359375 -5.984375 "/></g></g></g><g fill="#000000" fill-opacity="1"><g transform="translate(215.182486, 207.160404)"><g><path d="M 2.359375 0 L -0.125 0 L 3.25 -8.90625 L 5.78125 -8.90625 L 9.15625 0 L 6.671875 0 L 6.109375 -1.59375 L 2.921875 -1.59375 Z M 3.5 -3.25 L 5.53125 -3.25 L 4.515625 -6.234375 Z M 3.5 -3.25 "/></g></g></g><g fill="#000000" fill-opacity="1"><g transform="translate(231.186422, 207.160404)"><g><path d="M 5.09375 0 L 2.796875 0 L 2.796875 -7.125 L 0.125 -7.125 L 0.125 -8.90625 L 7.765625 -8.90625 L 7.765625 -7.125 L 5.09375 -7.125 Z M 5.09375 0 "/></g></g></g><g fill="#000000" fill-opacity="1"><g transform="translate(246.045575, 207.160404)"><g><path d="M 4.953125 0 L 0.375 0 L 0.375 -1.78125 L 1.53125 -1.78125 L 1.53125 -7.125 L 0.375 -7.125 L 0.375 -8.90625 L 4.953125 -8.90625 L 4.953125 -7.125 L 3.8125 -7.125 L 3.8125 -1.78125 L 4.953125 -1.78125 Z M 4.953125 0 "/></g></g></g><g fill="#000000" fill-opacity="1"><g transform="translate(258.360755, 207.160404)"><g><path d="M 6.484375 -6.484375 C 6.484375 -6.992188 6.226562 -7.25 5.71875 -7.25 L 3.5625 -7.25 C 3.050781 -7.25 2.796875 -6.992188 2.796875 -6.484375 L 2.796875 -2.421875 C 2.796875 -1.910156 3.050781 -1.65625 3.5625 -1.65625 L 5.71875 -1.65625 C 6.226562 -1.65625 6.484375 -1.910156 6.484375 -2.421875 Z M 8.78125 -2.421875 C 8.78125 -1.523438 8.578125 -0.875 8.171875 -0.46875 C 7.765625 -0.0703125 7.117188 0.125 6.234375 0.125 L 3.046875 0.125 C 2.160156 0.125 1.515625 -0.0703125 1.109375 -0.46875 C 0.710938 -0.875 0.515625 -1.523438 0.515625 -2.421875 L 0.515625 -6.484375 C 0.515625 -7.378906 0.710938 -8.023438 1.109375 -8.421875 C 1.515625 -8.828125 2.160156 -9.03125 3.046875 -9.03125 L 6.234375 -9.03125 C 7.117188 -9.03125 7.765625 -8.828125 8.171875 -8.421875 C 8.578125 -8.023438 8.78125 -7.378906 8.78125 -6.484375 Z M 8.78125 -2.421875 "/></g></g></g><g fill="#000000" fill-opacity="1"><g transform="translate(274.619084, 207.160404)"><g><path d="M 8.515625 0 L 6.109375 0 L 3.046875 -5.34375 L 3.046875 0 L 0.765625 0 L 0.765625 -8.90625 L 3.171875 -8.90625 L 6.234375 -3.5625 L 6.234375 -8.90625 L 8.515625 -8.90625 Z M 8.515625 0 "/></g></g></g><g fill="#000000" fill-opacity="1"><g transform="translate(290.877413, 207.160404)"><g><path d="M 0.5 -1.84375 C 2.820312 -1.71875 4.394531 -1.65625 5.21875 -1.65625 C 5.40625 -1.65625 5.554688 -1.710938 5.671875 -1.828125 C 5.785156 -1.941406 5.84375 -2.097656 5.84375 -2.296875 L 5.84375 -3.4375 L 2.921875 -3.4375 C 2.035156 -3.4375 1.390625 -3.632812 0.984375 -4.03125 C 0.578125 -4.4375 0.375 -5.085938 0.375 -5.984375 L 0.375 -6.359375 C 0.375 -7.242188 0.578125 -7.890625 0.984375 -8.296875 C 1.390625 -8.703125 2.035156 -8.90625 2.921875 -8.90625 L 7.390625 -8.90625 L 7.390625 -7.125 L 3.4375 -7.125 C 2.925781 -7.125 2.671875 -6.867188 2.671875 -6.359375 L 2.671875 -6.109375 C 2.671875 -5.597656 2.925781 -5.34375 3.4375 -5.34375 L 5.71875 -5.34375 C 6.550781 -5.34375 7.160156 -5.144531 7.546875 -4.75 C 7.941406 -4.363281 8.140625 -3.753906 8.140625 -2.921875 L 8.140625 -2.296875 C 8.140625 -1.460938 7.941406 -0.847656 7.546875 -0.453125 C 7.160156 -0.0664062 6.550781 0.125 5.71875 0.125 C 5.289062 0.125 4.832031 0.117188 4.34375 0.109375 L 3.171875 0.046875 C 2.304688 0.00390625 1.414062 -0.0507812 0.5 -0.125 Z M 0.5 -1.84375 "/></g></g></g><path stroke-linecap="round" transform="matrix(0, 0.75, -0.75, 0, 131.314947, 159.251942)" fill="none" stroke-linejoin="miter" d="M 1.497411 1.498055 L 73.830749 1.498055 " stroke="#8c52ff" stroke-width="3" stroke-opacity="1" stroke-miterlimit="4"/></svg>