<svg xmlns="http://www.w3.org/2000/svg" xmlns:xlink="http://www.w3.org/1999/xlink" width="500" zoomAndPan="magnify" viewBox="0 0 375 374.999991" height="500" preserveAspectRatio="xMidYMid meet" version="1.0"><defs><clipPath id="d018b501b2"><path d="M 86 166 L 347.226562 166 L 347.226562 208 L 86 208 Z M 86 166 " clip-rule="nonzero"/></clipPath><clipPath id="92a007236c"><path d="M 136 67 L 347.226562 67 L 347.226562 108 L 136 108 Z M 136 67 " clip-rule="nonzero"/></clipPath><clipPath id="ac3623e3c0"><path d="M 245 117 L 347.226562 117 L 347.226562 158 L 245 158 Z M 245 117 " clip-rule="nonzero"/></clipPath><clipPath id="0590843459"><path d="M 20.226562 166 L 67 166 L 67 208 L 20.226562 208 Z M 20.226562 166 " clip-rule="nonzero"/></clipPath><clipPath id="54ba83f096"><path d="M 146 216 L 347.226562 216 L 347.226562 257 L 146 257 Z M 146 216 " clip-rule="nonzero"/></clipPath><clipPath id="e3e15440d7"><path d="M 166 265 L 347.226562 265 L 347.226562 307 L 166 307 Z M 166 265 " clip-rule="nonzero"/></clipPath></defs><g clip-path="url(#d018b501b2)"><path fill="#8c52ff" d="M 461.027344 166.699219 L 250.117188 166.699219 L 241.113281 182.269531 L 220.257812 182.269531 L 211.25 166.699219 C 203.484375 166.699219 106.175781 166.699219 98.410156 166.699219 L 86.761719 186.875 L 98.410156 207.046875 C 106.175781 207.046875 203.484375 207.046875 211.25 207.046875 L 220.257812 191.476562 L 241.113281 191.476562 L 250.117188 207.046875 L 461.027344 207.046875 C 463.351562 193.71875 463.351562 180.070312 461.027344 166.699219 Z M 461.027344 166.699219 " fill-opacity="1" fill-rule="nonzero"/></g><g clip-path="url(#92a007236c)"><path fill="#8c52ff" d="M 171.464844 107.859375 L 180.46875 92.289062 L 201.324219 92.289062 L 210.332031 107.859375 L 432.6875 107.859375 C 390.898438 60.746094 344.027344 67.46875 287.503906 67.46875 L 210.332031 67.46875 L 201.324219 83.039062 L 180.46875 83.039062 L 171.464844 67.46875 L 148.167969 67.46875 L 136.519531 87.644531 L 148.167969 107.816406 L 171.464844 107.816406 Z M 171.464844 107.859375 " fill-opacity="1" fill-rule="nonzero"/></g><g clip-path="url(#ac3623e3c0)"><path fill="#8c52ff" d="M 310.761719 132.675781 L 289.90625 132.675781 L 280.902344 117.105469 L 257.605469 117.105469 L 245.957031 137.277344 L 257.605469 157.453125 L 280.902344 157.453125 L 289.90625 141.882812 L 310.761719 141.882812 L 319.769531 157.453125 L 459.066406 157.453125 C 455.304688 142.722656 448.78125 129.074219 440.09375 117.066406 L 319.769531 117.066406 Z M 310.761719 132.675781 " fill-opacity="1" fill-rule="nonzero"/></g><g clip-path="url(#0590843459)"><path fill="#8c52ff" d="M 31.882812 166.699219 L 20.234375 186.875 L 31.882812 207.089844 L 55.222656 207.089844 L 66.867188 186.875 L 55.222656 166.699219 Z M 31.882812 166.699219 " fill-opacity="1" fill-rule="nonzero"/></g><path fill="#8c52ff" d="M 179.429688 137.277344 L 191.078125 157.453125 L 214.414062 157.453125 L 226.0625 137.277344 L 214.414062 117.105469 L 191.078125 117.105469 Z M 179.429688 137.277344 " fill-opacity="1" fill-rule="nonzero"/><path fill="#8c52ff" d="M 111.5 265.890625 L 99.8125 286.105469 L 111.5 306.277344 L 134.796875 306.277344 L 146.445312 286.105469 L 134.796875 265.890625 Z M 111.5 265.890625 " fill-opacity="1" fill-rule="nonzero"/><g clip-path="url(#54ba83f096)"><path fill="#8c52ff" d="M 211.25 231.867188 L 190.398438 231.867188 L 181.390625 216.296875 L 158.09375 216.296875 L 146.445312 236.46875 L 158.09375 256.644531 L 181.390625 256.644531 L 190.398438 241.074219 L 211.25 241.074219 L 220.257812 256.644531 L 440.054688 256.644531 C 448.738281 244.636719 455.265625 230.984375 459.027344 216.253906 C 386.054688 216.253906 293.191406 216.253906 220.21875 216.253906 Z M 211.25 231.867188 " fill-opacity="1" fill-rule="nonzero"/></g><g clip-path="url(#e3e15440d7)"><path fill="#8c52ff" d="M 270.972656 281.5 L 250.121094 281.5 L 241.113281 265.929688 C 220.097656 265.929688 199.042969 265.929688 177.988281 265.929688 L 166.339844 286.105469 L 177.988281 306.277344 C 199.042969 306.277344 220.058594 306.277344 241.113281 306.277344 L 250.117188 290.707031 L 270.972656 290.707031 L 279.980469 306.277344 C 339.664062 306.277344 389.816406 314.246094 432.6875 265.890625 L 279.980469 265.890625 Z M 270.972656 281.5 " fill-opacity="1" fill-rule="nonzero"/></g><path stroke-linecap="round" transform="matrix(0, 0.75, -0.75, 0, 354.772656, 43.998045)" fill="none" stroke-linejoin="miter" d="M 7.497399 7.498959 L 375.174506 7.498959 " stroke="#8c52ff" stroke-width="15" stroke-opacity="1" stroke-miterlimit="4"/></svg>